<svg width="88" height="88" viewBox="0 0 88 88" fill="none" xmlns="http://www.w3.org/2000/svg">
<circle cx="20.8965" cy="66.3867" r="20.8965" fill="#DADADA"/>
<path d="M56.2999 1.46353C56.4495 1.00287 57.1012 1.00287 57.2509 1.46353L58.3739 4.91987C58.4409 5.12589 58.6329 5.26537 58.8495 5.26537L62.4837 5.26537C62.9681 5.26537 63.1694 5.88517 62.7776 6.16988L59.8374 8.30602C59.6622 8.43334 59.5889 8.65902 59.6558 8.86503L60.7788 12.3214C60.9285 12.782 60.4013 13.1651 60.0094 12.8804L57.0693 10.7443C56.894 10.6169 56.6567 10.6169 56.4815 10.7443L53.5413 12.8804C53.1495 13.1651 52.6222 12.782 52.7719 12.3214L53.895 8.86503C53.9619 8.65902 53.8886 8.43334 53.7133 8.30602L50.7732 6.16988C50.3813 5.88517 50.5827 5.26537 51.0671 5.26537L54.7013 5.26537C54.9179 5.26537 55.1099 5.12589 55.1768 4.91987L56.2999 1.46353Z" fill="#141414"/>
<path d="M29.1967 68.6292C29.4689 68.9014 29.3443 69.3661 28.9726 69.4657L18.9451 72.1526C18.5733 72.2522 18.2331 71.912 18.3328 71.5402L21.0196 61.5128C21.1192 61.141 21.5839 61.0165 21.8561 61.2886L29.1967 68.6292Z" fill="#4EAF4E"/>
<circle cx="72.9807" cy="23.4318" r="6.02949" fill="#DADADA"/>
<path d="M63.4285 34.1973C74.6372 35.2414 83.082 39.6941 83.082 45.0374C83.082 51.1484 72.0883 56.0925 58.5151 56.0925C52.4962 56.0925 46.9687 55.1098 42.7002 53.513" fill="#4EAF4E"/>
<path d="M63.4285 34.1973C74.6372 35.2414 83.082 39.6941 83.082 45.0374C83.082 51.1484 72.0883 56.0925 58.5151 56.0925C52.4962 56.0925 46.9687 55.1098 42.7002 53.513" stroke="#141414" stroke-width="2" stroke-linecap="round" stroke-linejoin="round"/>
<path d="M14.2939 30.2969V42.5803C14.2939 48.6913 25.2876 53.6354 38.8608 53.6354C52.4341 53.6354 63.4277 48.6913 63.4277 42.5803V30.2969" fill="white"/>
<path d="M14.2939 30.2969V42.5803C14.2939 48.6913 25.2876 53.6354 38.8608 53.6354C52.4341 53.6354 63.4277 48.6913 63.4277 42.5803V30.2969" stroke="#141414" stroke-width="2" stroke-linecap="round" stroke-linejoin="round"/>
<path d="M38.8608 41.3524C52.4288 41.3524 63.4277 36.4029 63.4277 30.2973C63.4277 24.1917 52.4288 19.2422 38.8608 19.2422C25.2929 19.2422 14.2939 24.1917 14.2939 30.2973C14.2939 36.4029 25.2929 41.3524 38.8608 41.3524Z" fill="#FFCC4A" stroke="#141414" stroke-width="2" stroke-linecap="round" stroke-linejoin="round"/>
<path d="M29.0342 40.4316V52.7151" stroke="#141414" stroke-width="2" stroke-linecap="round" stroke-linejoin="round"/>
<path d="M33.9482 53.4206V57.3206C33.9482 63.4316 44.9419 68.3757 58.5151 68.3757C72.0884 68.3757 83.082 63.4316 83.082 57.3206V45.0371" stroke="#141414" stroke-width="2" stroke-linecap="round" stroke-linejoin="round"/>
<path d="M68.3418 55.1719V67.4553" stroke="#141414" stroke-width="2" stroke-linecap="round" stroke-linejoin="round"/>
<path d="M48.6875 40.4316V67.4552" stroke="#141414" stroke-width="2" stroke-linecap="round" stroke-linejoin="round"/>
</svg>
