<svg width="97" height="72" viewBox="0 0 97 72" fill="none" xmlns="http://www.w3.org/2000/svg">
<circle cx="65.5023" cy="27.3841" r="23.7884" fill="#282828"/>
<path d="M35.075 1.46352C35.2247 1.00287 35.8764 1.00287 36.0261 1.46353L37.1717 4.98924C37.2386 5.19525 37.4306 5.33473 37.6472 5.33473H41.3543C41.8387 5.33473 42.0401 5.95454 41.6482 6.23924L38.6491 8.41825C38.4738 8.54557 38.4005 8.77125 38.4675 8.97726L39.613 12.503C39.7627 12.9636 39.2355 13.3467 38.8436 13.062L35.8445 10.883C35.6692 10.7557 35.4319 10.7557 35.2567 10.883L32.2575 13.062C31.8657 13.3467 31.3384 12.9636 31.4881 12.503L32.6337 8.97726C32.7006 8.77125 32.6273 8.54557 32.452 8.41824L29.4529 6.23924C29.061 5.95453 29.2624 5.33473 29.7468 5.33473H33.4539C33.6706 5.33473 33.8625 5.19525 33.9295 4.98924L35.075 1.46352Z" fill="#FFCC4A"/>
<path d="M15.0779 63.5324C15.35 63.8045 15.2255 64.2692 14.8537 64.3689L4.54414 67.1313C4.17236 67.2309 3.83215 66.8907 3.93177 66.5189L6.69421 56.2094C6.79383 55.8376 7.25856 55.7131 7.53073 55.9852L15.0779 63.5324Z" fill="#4EAF4E"/>
<circle cx="90.5009" cy="19.9824" r="5.88667" fill="white"/>
<path d="M76.8932 22.3105H29.3841C28.1915 22.3105 27.2246 23.2774 27.2246 24.47V56.8626C27.2246 58.0552 28.1915 59.0221 29.3841 59.0221H76.8932C78.0858 59.0221 79.0527 58.0552 79.0527 56.8626V24.47C79.0527 23.2774 78.0858 22.3105 76.8932 22.3105Z" fill="#181818" stroke="white" stroke-width="2" stroke-linecap="round" stroke-linejoin="round"/>
<path d="M76.8932 22.3105H29.3841C28.1915 22.3105 27.2246 23.2774 27.2246 24.47V56.8626C27.2246 58.0552 28.1915 59.0221 29.3841 59.0221H76.8932C78.0858 59.0221 79.0527 58.0552 79.0527 56.8626V24.47C79.0527 23.2774 78.0858 22.3105 76.8932 22.3105Z" fill="#181818" stroke="white" stroke-width="2" stroke-linecap="round" stroke-linejoin="round"/>
<path d="M76.8932 48.7285H29.3841C28.1915 48.7285 27.2246 48.9996 27.2246 49.334V58.4167C27.2246 58.7511 28.1915 59.0222 29.3841 59.0222H76.8932C78.0858 59.0222 79.0527 58.7511 79.0527 58.4167V49.334C79.0527 48.9996 78.0858 48.7285 76.8932 48.7285Z" fill="#4EAF4E" stroke="white" stroke-width="2" stroke-linecap="round" stroke-linejoin="round"/>
<path d="M61.7764 59.0215L70.4144 69.819" stroke="white" stroke-width="2" stroke-linecap="round" stroke-linejoin="round"/>
<path d="M44.5003 59.0215L35.8623 69.819" stroke="white" stroke-width="2" stroke-linecap="round" stroke-linejoin="round"/>
<path d="M44.501 41.7461V48.2246" stroke="white" stroke-width="2" stroke-linecap="round" stroke-linejoin="round"/>
<path d="M53.1387 37.4277V48.2252" stroke="white" stroke-width="2" stroke-linecap="round" stroke-linejoin="round"/>
<path d="M61.7764 33.1074V48.2239" stroke="white" stroke-width="2" stroke-linecap="round" stroke-linejoin="round"/>
<path d="M53.1387 22.3105V15.832" stroke="white" stroke-width="2" stroke-linecap="round" stroke-linejoin="round"/>
</svg>
