<svg width="102" height="71" viewBox="0 0 102 71" fill="none" xmlns="http://www.w3.org/2000/svg">
<circle cx="73.7376" cy="26.8743" r="23.7884" fill="#DADADA"/>
<path d="M94.7179 51.4284C94.8676 50.9677 95.5193 50.9677 95.6689 51.4284L96.5925 54.2707C96.6594 54.4767 96.8514 54.6162 97.068 54.6162H100.057C100.541 54.6162 100.742 55.236 100.351 55.5207L97.9327 57.2774C97.7574 57.4047 97.6841 57.6304 97.751 57.8364L98.6746 60.6787C98.8242 61.1394 98.297 61.5224 97.9052 61.2377L95.4873 59.4811C95.3121 59.3538 95.0748 59.3538 94.8995 59.4811L92.4817 61.2377C92.0898 61.5224 91.5626 61.1394 91.7123 60.6787L92.6358 57.8364C92.7027 57.6304 92.6294 57.4047 92.4542 57.2774L90.0363 55.5207C89.6445 55.236 89.8459 54.6162 90.3302 54.6162H93.3188C93.5354 54.6162 93.7274 54.4767 93.7944 54.2707L94.7179 51.4284Z" fill="#141414"/>
<path d="M15.0779 37.8917C15.35 38.1639 15.2255 38.6286 14.8537 38.7282L4.54414 41.4907C4.17236 41.5903 3.83215 41.2501 3.93177 40.8783L6.69421 30.5687C6.79383 30.197 7.25856 30.0724 7.53073 30.3446L15.0779 37.8917Z" fill="#4EAF4E"/>
<circle cx="48.3095" cy="5.02144" r="5.02144" fill="#DADADA"/>
<path d="M80.1673 23.7832H22.0197C20.7845 23.7832 19.7832 24.7845 19.7832 26.0197V57.3299C19.7832 58.5651 20.7845 59.5664 22.0197 59.5664H80.1673C81.4025 59.5664 82.4038 58.5651 82.4038 57.3299V26.0197C82.4038 24.7845 81.4025 23.7832 80.1673 23.7832Z" fill="#EBEBEB" stroke="#141414" stroke-width="2" stroke-linecap="round" stroke-linejoin="round"/>
<path d="M82.5107 43.7161L64.602 59.7109L79.5107 59.7109C81.1676 59.7109 82.5107 58.3678 82.5107 56.7109L82.5107 43.7161Z" fill="#4EAF4E" stroke="black"/>
<path d="M19.6787 39.5203L37.5875 23.5254H22.6787C21.0219 23.5254 19.6787 24.8685 19.6787 26.5254V39.5203Z" fill="#4EAF4E" stroke="black"/>
<path d="M51.0933 50.6201C56.0339 50.6201 60.0391 46.6149 60.0391 41.6743C60.0391 36.7337 56.0339 32.7285 51.0933 32.7285C46.1526 32.7285 42.1475 36.7337 42.1475 41.6743C42.1475 46.6149 46.1526 50.6201 51.0933 50.6201Z" fill="#FFCC4A" stroke="#141414" stroke-width="2" stroke-linecap="round" stroke-linejoin="round"/>
<path d="M64.5127 23.7832L82.4043 39.4383" stroke="#141414" stroke-width="2" stroke-linecap="round" stroke-linejoin="round"/>
<path d="M64.5127 59.5653L82.4043 43.9102" stroke="#141414" stroke-width="2" stroke-linecap="round" stroke-linejoin="round"/>
<path d="M37.6748 23.7832L19.7832 39.4383" stroke="#141414" stroke-width="2" stroke-linecap="round" stroke-linejoin="round"/>
<path d="M37.6748 59.5653L19.7832 43.9102" stroke="#141414" stroke-width="2" stroke-linecap="round" stroke-linejoin="round"/>
</svg>
