<svg width="105" height="66" viewBox="0 0 105 66" fill="none" xmlns="http://www.w3.org/2000/svg">
<circle cx="22.864" cy="49.9597" r="15.5573" fill="#DADADA"/>
<path d="M77.7483 1.46352C77.898 1.00287 78.5497 1.00287 78.6994 1.46353L79.6648 4.43486C79.7318 4.64087 79.9237 4.78035 80.1404 4.78035H83.2646C83.749 4.78035 83.9504 5.40016 83.5585 5.68486L81.0309 7.52125C80.8557 7.64857 80.7824 7.87426 80.8493 8.08027L81.8147 11.0516C81.9644 11.5123 81.4372 11.8953 81.0453 11.6106L78.5177 9.77423C78.3425 9.64691 78.1052 9.64691 77.93 9.77423L75.4024 11.6106C75.0105 11.8953 74.4833 11.5123 74.633 11.0516L75.5984 8.08027C75.6654 7.87426 75.592 7.64857 75.4168 7.52125L72.8892 5.68486C72.4974 5.40016 72.6987 4.78035 73.1831 4.78035H76.3074C76.524 4.78035 76.7159 4.64087 76.7829 4.43486L77.7483 1.46352Z" fill="#141414"/>
<path d="M12.1127 54.5339C12.3849 54.8061 12.2604 55.2708 11.8886 55.3704L3.84329 57.5261C3.47151 57.6258 3.1313 57.2856 3.23092 56.9138L5.38665 48.8685C5.48626 48.4967 5.951 48.3722 6.22316 48.6443L12.1127 54.5339Z" fill="#4EAF4E"/>
<circle cx="97.8173" cy="21.4042" r="7.05852" fill="#DADADA"/>
<path d="M22.6826 28.377H79.1753V54.4474C79.1753 55.552 78.2798 56.4474 77.1753 56.4474H25.6826C24.0258 56.4474 22.6826 55.1043 22.6826 53.4474V28.377Z" fill="#FFCC4A"/>
<path d="M22.6768 27.9375L22.6768 20.4775C22.6769 18.8208 24.02 17.4775 25.6768 17.4775L62.7803 17.4775C63.8848 17.4775 64.7802 18.3731 64.7803 19.4775L64.7803 27.9375L22.6768 27.9375Z" fill="#4EAF4E" stroke="#141414" stroke-width="2"/>
<path d="M76.5285 17.2109H24.5833C23.388 17.2109 22.4189 18.18 22.4189 19.3753V54.0055C22.4189 55.2008 23.388 56.1698 24.5833 56.1698H76.5285C77.7239 56.1698 78.6929 55.2008 78.6929 54.0055V19.3753C78.6929 18.18 77.7239 17.2109 76.5285 17.2109Z" stroke="#141414" stroke-width="2" stroke-linecap="round" stroke-linejoin="round"/>
<path d="M61.3779 47.5117H70.0355" stroke="#141414" stroke-width="2" stroke-linecap="round" stroke-linejoin="round"/>
<path d="M48.3916 47.5117H52.7204" stroke="#141414" stroke-width="2" stroke-linecap="round" stroke-linejoin="round"/>
<path d="M22.4189 28.2754H78.6929" stroke="#141414" stroke-width="2" stroke-linecap="round" stroke-linejoin="round"/>
</svg>
