<svg width="99" height="90" viewBox="0 0 99 90" fill="none" xmlns="http://www.w3.org/2000/svg">
<circle cx="23.7884" cy="65.7474" r="23.7884" fill="#DDDDDD"/>
<path d="M79.3849 1.46352C79.5346 1.00287 80.1863 1.00287 80.3359 1.46353L81.2595 4.30587C81.3264 4.51188 81.5184 4.65136 81.735 4.65136H84.7236C85.208 4.65136 85.4094 5.27116 85.0175 5.55587L82.5997 7.31253C82.4244 7.43985 82.3511 7.66553 82.418 7.87154L83.3416 10.7139C83.4912 11.1745 82.964 11.5576 82.5721 11.2729L80.1543 9.51624C79.9791 9.38892 79.7418 9.38892 79.5665 9.51624L77.1487 11.2729C76.7568 11.5576 76.2296 11.1745 76.3793 10.7139L77.3028 7.87154C77.3697 7.66553 77.2964 7.43985 77.1212 7.31253L74.7033 5.55586C74.3115 5.27116 74.5128 4.65136 74.9972 4.65136H77.9858C78.2024 4.65136 78.3944 4.51188 78.4614 4.30587L79.3849 1.46352Z" fill="#141414"/>
<path d="M29.698 76.88C29.9701 77.1522 29.8456 77.6169 29.4738 77.7165L19.1643 80.479C18.7925 80.5786 18.4523 80.2384 18.5519 79.8666L21.3143 69.557C21.4139 69.1852 21.8787 69.0607 22.1508 69.3329L29.698 76.88Z" fill="#4EAF4E"/>
<circle cx="91.6047" cy="23.7021" r="7.25703" fill="#DADADA"/>
<path d="M31.2999 61.3999C35.1137 68.0055 41.3952 72.8255 48.7628 74.7996C56.1303 76.7737 63.9803 75.7403 70.5859 71.9265C77.1914 68.1128 82.0115 61.8312 83.9856 54.4637C85.9597 47.0962 84.9263 39.2461 81.1125 32.6406L56.2062 47.0202L31.2999 61.3999Z" fill="#FFCC4A"/>
<path d="M55.9785 46.1908V17.1484" stroke="#141414" stroke-width="2" stroke-linecap="round" stroke-linejoin="round"/>
<path d="M81.1184 31.6699L30.8389 60.7122" stroke="#141414" stroke-width="2" stroke-linecap="round" stroke-linejoin="round"/>
<path d="M27.4209 51.5154C27.0907 49.76 26.9286 47.9771 26.9368 46.1909C26.933 40.1846 28.7935 34.3251 32.2615 29.4211C35.7295 24.5172 40.6341 20.8104 46.2984 18.8125V40.5942L27.4209 51.5154Z" fill="#4EAF4E" stroke="#141414" stroke-width="2" stroke-linecap="round" stroke-linejoin="round"/>
<path d="M27.4209 51.5154C27.0907 49.76 26.9286 47.9771 26.9368 46.1909C26.933 40.1846 28.7935 34.3251 32.2615 29.4211C35.7295 24.5172 40.6341 20.8104 46.2984 18.8125V40.5942L27.4209 51.5154Z" stroke="#141414" stroke-width="2" stroke-linecap="round" stroke-linejoin="round"/>
<path d="M55.9787 17.1484C61.0676 17.149 66.0671 18.4868 70.4763 21.0277C74.8855 23.5686 78.5497 27.2235 81.1017 31.6263C83.6538 36.029 85.0042 41.0251 85.0176 46.114C85.031 51.203 83.7071 56.2061 81.1783 60.6223C78.6495 65.0385 75.0047 68.7127 70.609 71.2769C66.2133 73.841 61.221 75.2052 56.1321 75.2326C51.0432 75.2601 46.0365 73.9499 41.6133 71.4333C37.1902 68.9167 33.506 65.2821 30.9297 60.8934" stroke="#141414" stroke-width="2" stroke-linecap="round" stroke-linejoin="round"/>
</svg>
