<svg width="21" height="21" viewBox="0 0 21 21" fill="none" xmlns="http://www.w3.org/2000/svg">
<path d="M-4.461e-07 10.2055C-3.5787e-07 12.224 0.598547 14.1972 1.71995 15.8755C2.84135 17.5538 4.43525 18.8618 6.30007 19.6343C8.1649 20.4067 10.2169 20.6088 12.1966 20.215C14.1763 19.8212 15.9947 18.8493 17.422 17.422C18.8493 15.9947 19.8213 14.1762 20.2151 12.1966C20.6088 10.2169 20.4067 8.16487 19.6343 6.30004C18.8619 4.43522 17.5538 2.84132 15.8755 1.71992C14.1972 0.598516 12.2241 -3.10519e-05 10.2056 -3.09637e-05C7.50048 0.00515714 4.90767 1.08205 2.99487 2.99484C1.08208 4.90764 0.00518659 7.50045 -4.461e-07 10.2055ZM9.55792 6.09388L13.4831 9.62658C13.5635 9.70013 13.6276 9.78958 13.6715 9.88926C13.7153 9.98893 13.738 10.0966 13.738 10.2055C13.738 10.3145 13.7153 10.4222 13.6715 10.5218C13.6276 10.6215 13.5635 10.711 13.4831 10.7845L9.55792 14.3172C9.40354 14.4525 9.20231 14.5219 8.99736 14.5106C8.79241 14.4993 8.60003 14.4082 8.46144 14.2568C8.32286 14.1054 8.24909 13.9057 8.25594 13.7006C8.2628 13.4954 8.34973 13.3011 8.49811 13.1593L11.7757 10.2055L8.49811 7.25182C8.41949 7.18293 8.35543 7.09905 8.30966 7.00507C8.2639 6.9111 8.23737 6.80893 8.23162 6.70456C8.22587 6.6002 8.24102 6.49574 8.27618 6.3973C8.31133 6.29887 8.3658 6.20845 8.43637 6.13134C8.50694 6.05424 8.59219 5.992 8.68714 5.94829C8.78208 5.90457 8.8848 5.88026 8.98926 5.87676C9.09373 5.87328 9.19784 5.89068 9.29549 5.92797C9.39314 5.96525 9.48236 6.02166 9.55792 6.09388Z" fill="#181818"/>
</svg>
