<svg width="101" height="90" viewBox="0 0 101 90" fill="none" xmlns="http://www.w3.org/2000/svg">
<circle cx="23.7884" cy="66.1947" r="23.7884" fill="#DADADA"/>
<path d="M74.2521 1.46352C74.4017 1.00287 75.0535 1.00287 75.2031 1.46353L76.1267 4.30587C76.1936 4.51188 76.3856 4.65136 76.6022 4.65136H79.5908C80.0752 4.65136 80.2766 5.27116 79.8847 5.55587L77.4669 7.31253C77.2916 7.43985 77.2183 7.66553 77.2852 7.87154L78.2088 10.7139C78.3584 11.1745 77.8312 11.5576 77.4393 11.2729L75.0215 9.51624C74.8462 9.38892 74.609 9.38892 74.4337 9.51624L72.0159 11.2729C71.624 11.5576 71.0968 11.1745 71.2464 10.7139L72.17 7.87154C72.2369 7.66553 72.1636 7.43985 71.9883 7.31253L69.5705 5.55586C69.1786 5.27116 69.38 4.65136 69.8644 4.65136H72.853C73.0696 4.65136 73.2616 4.51188 73.3285 4.30587L74.2521 1.46352Z" fill="#141414"/>
<path d="M15.9646 43.9894C16.2367 44.2615 16.1122 44.7263 15.7404 44.8259L5.43086 47.5883C5.05908 47.688 4.71887 47.3478 4.81849 46.976L7.58093 36.6664C7.68055 36.2946 8.14528 36.1701 8.41745 36.4423L15.9646 43.9894Z" fill="#4EAF4E"/>
<circle cx="93.3898" cy="17.677" r="7.25703" fill="#DADADA"/>
<rect x="28.6797" y="56.4277" width="51.8211" height="8.02848" fill="#4EAF4E"/>
<path d="M26.2246 34.5454H82.9552L54.5899 17.0898L26.2246 34.5454Z" fill="#FFCC4A" stroke="#141414" stroke-width="2" stroke-linecap="round" stroke-linejoin="round"/>
<path d="M34.9531 34.5449V56.3644" stroke="#141414" stroke-width="2" stroke-linecap="round" stroke-linejoin="round"/>
<path d="M48.0439 34.5449V56.3644" stroke="#141414" stroke-width="2" stroke-linecap="round" stroke-linejoin="round"/>
<path d="M61.1357 34.5449V56.3644" stroke="#141414" stroke-width="2" stroke-linecap="round" stroke-linejoin="round"/>
<path d="M74.2275 34.5449V56.3644" stroke="#141414" stroke-width="2" stroke-linecap="round" stroke-linejoin="round"/>
<path d="M28.4072 56.3652H80.7739" stroke="#141414" stroke-width="2" stroke-linecap="round" stroke-linejoin="round"/>
<path d="M24.043 65.0918H85.1374" stroke="#141414" stroke-width="2" stroke-linecap="round" stroke-linejoin="round"/>
</svg>
